<?xml version="1.0" encoding="UTF-8"?>
<svg version="1.1" xmlns="http://www.w3.org/2000/svg" width="2000" height="2000">
<path d="M0 0 C2.16084124 -0.00230974 4.32168169 -0.00548968 6.48252052 -0.00945449 C12.36788666 -0.01774054 18.25318725 -0.01370562 24.1385535 -0.00748205 C30.50604419 -0.00293305 36.87352407 -0.00995339 43.24101257 -0.01544189 C54.97581702 -0.02379987 66.71059837 -0.02310596 78.44540392 -0.01761896 C89.28832139 -0.01257429 100.1312313 -0.01128074 110.9741497 -0.01366425 C112.05586131 -0.0138934 112.05586131 -0.0138934 113.15942567 -0.01412719 C116.0872618 -0.01474993 119.01509793 -0.01538674 121.94293406 -0.01604671 C149.36901193 -0.02215513 176.79507665 -0.0166329 204.22115249 -0.00585292 C228.55319867 0.00363824 252.88522391 0.00278707 277.2172699 -0.0067749 C304.59688114 -0.01749872 331.97648078 -0.02172281 359.35609382 -0.01555037 C362.27807518 -0.014909 365.20005653 -0.01428332 368.12203789 -0.01366425 C368.84142847 -0.01350609 369.56081905 -0.01334794 370.30200934 -0.01318499 C381.13511516 -0.01091615 391.96821256 -0.01355916 402.80131721 -0.01862335 C415.12612592 -0.02435639 427.4509064 -0.02268991 439.77571268 -0.01206186 C446.05844059 -0.00682182 452.34112612 -0.00471992 458.62385368 -0.01136017 C464.38443357 -0.01735629 470.1449321 -0.01398453 475.9055047 -0.00340506 C477.97993966 -0.0011865 480.05438162 -0.00227223 482.12881202 -0.00715664 C524.89882953 -0.10007069 559.62678612 12.29209611 590.57981873 41.91998291 C591.77986887 43.06233029 592.99973793 44.18379525 594.22337341 45.30084229 C618.26441767 67.89363086 627.23158763 103.03101634 636.86015701 133.36342621 C637.93497662 136.74356978 639.01878926 140.12083239 640.10105896 143.49859619 C646.45612764 163.35137489 652.73332259 183.22915555 658.99241638 203.11236572 C664.73707069 221.35607971 670.54899074 239.57765029 676.37900543 257.79421616 C685.71956362 286.98104726 694.97981151 316.19251244 704.19700623 345.41851807 C705.19403485 348.57982679 706.19110936 351.74112104 707.18821716 354.90240479 C707.55506182 356.06553129 707.55506182 356.06553129 707.92931747 357.2521553 C713.05067263 373.48858332 718.19988585 389.71610886 723.35618591 405.94146729 C729.56411716 425.47671575 735.75295614 445.01785447 741.91868591 464.56646729 C748.38794549 485.07630737 754.89305249 505.57451432 761.41868591 526.06646729 C768.14419112 547.18606249 774.85641689 568.30972502 781.54368591 589.44146729 C787.97299912 609.75657232 794.40874963 630.06960791 800.85618591 650.37896729 C801.06220806 651.02797123 801.26823021 651.67697517 801.48049545 652.3456459 C806.40673458 667.86396275 811.3383565 683.3805562 816.27806091 698.89459229 C816.72212533 700.28936668 817.16618661 701.68414207 817.61024475 703.07891846 C820.27374547 711.444786 820.27374547 711.444786 822.93815613 719.81036377 C827.50402861 734.14379532 832.06045655 748.47990622 836.56712341 762.83209229 C844.59111853 788.37563129 852.76662273 813.8603108 861.15166092 839.287117 C868.38512898 861.22321916 875.4454475 883.20742784 882.36375427 905.24542236 C887.29726424 920.95636252 892.31072681 936.63976694 897.3714447 952.31018066 C907.84732216 984.76161926 907.84732216 984.76161926 912.41868591 999.87896729 C912.92154114 1001.52771851 912.92154114 1001.52771851 913.43455505 1003.20977783 C916.87298883 1014.76178108 919.54608535 1026.02399812 919.41868591 1038.12896729 C919.41111267 1039.16053955 919.40353943 1040.19211182 919.39573669 1041.25494385 C918.92345759 1063.36587955 909.68765122 1080.26486971 894.06712341 1095.54302979 C875.12404097 1112.76958696 853.53319172 1114.56842402 829.16823483 1114.50285625 C827.07948232 1114.50464173 824.99073042 1114.50730394 822.90198001 1114.51075712 C817.17229475 1114.51769876 811.44267902 1114.51223008 805.71299699 1114.50470103 C799.47566146 1114.49871682 793.23833455 1114.50436415 787.00099903 1114.50852185 C776.07253846 1114.51420362 765.14410215 1114.51252534 754.21564293 1114.50583649 C742.49379939 1114.4986984 730.77196688 1114.49593563 719.05012131 1114.49847603 C718.30879965 1114.49863389 717.56747799 1114.49879176 716.80369204 1114.49895441 C713.02341452 1114.49977846 709.24313701 1114.50067132 705.46285951 1114.50158678 C678.12180683 1114.50805288 650.78076231 1114.50471199 623.43971062 1114.49599266 C596.35902769 1114.48737192 569.27834862 1114.482461 542.19766426 1114.48266029 C540.49653175 1114.48266822 538.79539923 1114.48267594 537.09426671 1114.48268346 C530.25803893 1114.48272084 523.42181115 1114.48278726 516.58558336 1114.48288927 C497.47589183 1114.48316689 478.36620034 1114.4827782 459.25650883 1114.48190022 C458.38632047 1114.48186054 457.51613211 1114.48182087 456.61957441 1114.48178 C428.8941481 1114.48047217 401.168723 1114.47630141 373.44329739 1114.47004223 C372.54412664 1114.46983929 371.6449559 1114.46963635 370.71853756 1114.46942726 C356.11680546 1114.46611858 341.5150734 1114.46262325 326.91334134 1114.45911855 C268.99951324 1114.44522946 211.08568951 1114.43858547 153.17185974 1114.43927002 C151.34122311 1114.43929041 149.51058648 1114.43931062 147.67994985 1114.43933066 C144.02300956 1114.43937084 140.36606927 1114.43941161 136.70912898 1114.43945277 C128.50945385 1114.43954419 120.30977872 1114.43962854 112.11010359 1114.43969935 C110.2939884 1114.43971512 108.47787321 1114.43973157 106.66175802 1114.43974868 C58.14166375 1114.440194 9.62157008 1114.43572581 -38.89852375 1114.42939645 C-39.74563629 1114.42928628 -40.59274883 1114.42917611 -41.46553144 1114.4290626 C-56.89794 1114.42705508 -56.89794 1114.42705508 -64.46048004 1114.426038 C-83.08884237 1114.4235428 -101.71720449 1114.42160135 -120.34556699 1114.42122436 C-121.18485191 1114.42120683 -122.02413683 1114.4211893 -122.88885462 1114.42117123 C-126.27127937 1114.42110203 -129.65370412 1114.42103678 -133.03612887 1114.42097375 C-164.4211305 1114.42038766 -195.80612855 1114.41661916 -227.19112868 1114.40649506 C-230.2004693 1114.40553748 -233.20980992 1114.40459415 -236.21915054 1114.40366173 C-236.95768992 1114.40343119 -237.69622929 1114.40320066 -238.45714865 1114.40296314 C-250.1474168 1114.39940017 -261.83768253 1114.39916077 -273.52795107 1114.40029756 C-285.02511149 1114.40134216 -296.52226496 1114.39871396 -308.01942404 1114.39244743 C-314.16848918 1114.38919435 -320.31754365 1114.38751389 -326.46660931 1114.39020803 C-332.06235588 1114.39262415 -337.65808115 1114.39043186 -343.25382503 1114.38458991 C-345.26373027 1114.3832916 -347.27363746 1114.3836563 -349.28354186 1114.38590652 C-373.50257796 1114.41083416 -394.65547687 1113.70552447 -414.01881409 1097.25396729 C-414.68397034 1096.73318604 -415.34912659 1096.21240479 -416.03443909 1095.67584229 C-429.45895117 1084.78824587 -440.1193417 1066.53363358 -442.01881409 1049.25396729 C-442.26992206 1045.83646647 -442.39413178 1042.4299016 -442.45631409 1039.00396729 C-442.47887268 1038.1954834 -442.50143127 1037.38699951 -442.52467346 1036.55401611 C-442.46695603 1021.75959602 -436.89165096 1007.06358924 -432.39381409 993.12896729 C-431.85504078 991.44342525 -431.31680253 989.7577121 -430.77906799 988.07183838 C-429.44207544 983.8859691 -428.09749947 979.70259094 -426.74928284 975.52032471 C-426.09063834 973.4768097 -425.43324872 971.43289846 -424.77662659 969.38873291 C-422.85612169 963.41198921 -420.92818444 957.43767934 -418.99537659 951.46490479 C-415.3085193 940.06955267 -411.64395661 928.66701512 -407.97810364 917.26489258 C-406.7985864 913.59656004 -405.61842544 909.92843502 -404.43824768 906.26031494 C-402.61733863 900.59895208 -400.80029291 894.93636259 -398.98634338 889.27276611 C-398.37626675 887.36925928 -397.76523344 885.46605854 -397.15284729 883.56329346 C-394.65848985 875.81056087 -392.22160462 868.0553354 -390.03338623 860.21002197 C-385.72857441 844.777241 -380.69672229 829.58163139 -375.72347641 814.35485077 C-373.63540481 807.95618795 -371.55765451 801.55415835 -369.47805977 795.15273666 C-368.71077679 792.79114041 -367.94310542 790.42967064 -367.17541504 788.06820679 C-363.55764975 776.93585113 -359.97771636 765.79222074 -356.45631409 754.62896729 C-355.97113666 753.09185432 -355.48594768 751.554745 -355.00074768 750.01763916 C-354.75297577 749.23270081 -354.50520386 748.44776245 -354.24992371 747.63903809 C-353.86868851 746.43135773 -353.86868851 746.43135773 -353.47975159 745.19927979 C-353.22084137 744.37885193 -352.96193115 743.55842407 -352.69517517 742.71313477 C-348.58858195 729.71147761 -344.43666551 716.72416562 -340.29280853 703.7343483 C-339.10288388 700.0041922 -337.9131614 696.27397163 -336.72340393 692.54376221 C-335.27243625 687.9946619 -333.82142306 683.44557612 -332.37028503 678.89653015 C-329.08515002 668.59812491 -325.80150674 658.29924503 -322.51881409 648.00006104 C-315.10537286 624.74168806 -307.69161401 601.48342387 -300.26100159 578.23052979 C-300.02184713 577.48212893 -299.78269268 576.73372807 -299.53629112 575.96264839 C-298.32704356 572.17852687 -297.11774753 568.39442085 -295.90843201 564.61032104 C-295.66884136 563.86061161 -295.42925072 563.11090218 -295.18239975 562.33847427 C-294.69826431 560.82355783 -294.21412582 559.30864237 -293.72998428 557.79372787 C-286.42705259 534.94193083 -279.14197788 512.08452425 -271.87273788 489.22198868 C-264.77321176 466.89340379 -257.65225127 444.57174064 -250.51881409 422.25396729 C-242.49915984 397.16321702 -234.49771648 372.06675777 -226.51589108 346.96394825 C-225.43621422 343.56840896 -224.35645272 340.1728966 -223.27662659 336.77740479 C-223.06256227 336.10427435 -222.84849796 335.43114391 -222.62794685 334.73761559 C-219.24080983 324.08749989 -215.84647161 313.43969371 -212.44850159 302.79302979 C-211.97991622 301.32473858 -211.51133406 299.85644634 -211.04275513 298.38815308 C-210.81081923 297.66138807 -210.57888334 296.93462307 -210.33991909 296.18583488 C-209.17036283 292.52105247 -208.00082356 288.85626463 -206.83131409 285.19146729 C-206.60068142 284.46877907 -206.37004875 283.74609085 -206.13242722 283.00150299 C-199.2695361 261.49560229 -192.44974422 239.97662588 -185.66749573 218.44512939 C-179.38663509 198.51119722 -173.00727669 178.61002024 -166.57887268 158.72320557 C-162.92188069 147.39392292 -159.31919381 136.05181829 -155.83522034 124.66802979 C-155.49950516 123.57545364 -155.16378998 122.4828775 -154.81790161 121.35719299 C-153.24293316 116.23080953 -151.67908926 111.10168338 -150.13917542 105.96466064 C-143.70562369 84.792559 -134.52108243 66.11583687 -120.01881409 49.25396729 C-119.2208844 48.31037354 -118.42295471 47.36677979 -117.60084534 46.39459229 C-93.86215168 18.98796405 -60.43658219 3.44854677 -24.67509551 0.4360798 C-16.46346886 -0.12690271 -8.22624375 -0.01939217 0 0 Z " fill="#CD5D67" transform="translate(761.0188140869141,442.74603271484375)"/>
<path d="M0 0 C14.38114709 -0.01666218 28.76203642 -0.05069222 43.14308649 -0.10653245 C53.47540614 -0.14524358 63.80765584 -0.16475884 74.14004606 -0.17005217 C80.23374875 -0.17366986 86.32716272 -0.18532886 92.420784 -0.21815491 C98.08467944 -0.24830056 103.74811061 -0.25452442 109.41206932 -0.24277115 C111.47112777 -0.2425518 113.53020892 -0.25074038 115.58919144 -0.26842499 C132.45898002 -0.4054095 148.28882501 1.10597371 161.17241478 13.34106064 C172.98289951 26.29597219 176.3811926 45.39457467 181.02397728 61.81762314 C182.36989576 66.57514053 183.76344107 71.31108064 185.23100853 76.03246689 C187.14968642 82.20667394 188.89518172 88.4201347 190.60991478 94.65356064 C192.55464309 101.66515907 194.52125613 108.65921919 196.73491478 115.59106064 C198.57936421 121.37511079 200.27985919 127.18418298 201.92241478 133.02856064 C204.35915254 141.6799866 206.98747077 150.26364437 209.67241478 158.84106064 C213.10073587 169.80357461 216.37518787 180.79431659 219.47514915 191.85375595 C220.67776125 196.14374615 221.8919033 200.43042025 223.10991478 204.71606064 C223.35072777 205.56764755 223.59154076 206.41923447 223.83965111 207.29662704 C225.19771188 212.06211273 226.61792229 216.80195784 228.10600853 221.52856064 C228.42899925 222.5606163 228.75198997 223.59267197 229.0847683 224.65600204 C229.71061192 226.64543243 230.344771 228.63227261 230.98857689 230.61596298 C232.55935015 235.61561391 233.89378369 240.04883603 233.17241478 245.34106064 C231.62553978 247.93871689 231.62553978 247.93871689 229.42241478 250.40356064 C228.19264915 251.81315048 228.19264915 251.81315048 226.93803978 253.25121689 C226.26804955 253.99782578 226.26804955 253.99782578 225.58452415 254.75951767 C223.59020099 256.99313203 221.64941767 259.27110525 219.70464134 261.54784775 C218.67760753 262.74981769 217.64828273 263.9498336 216.61675072 265.1479454 C213.58338998 268.6719402 210.60317149 272.23070817 207.67241478 275.84106064 C203.73862908 280.68702853 199.68793718 285.42204592 195.61382103 290.14965439 C192.58283194 293.67423967 189.60248897 297.23154896 186.67241478 300.84106064 C182.73798222 305.68782539 178.68686904 310.42385319 174.61162376 315.15185165 C171.59996469 318.65341365 168.64182528 322.1889262 165.73491478 325.77856064 C161.63455564 330.82800834 157.38872129 335.73879081 153.11894798 340.64452744 C146.20567 348.59081237 139.38024114 356.60612158 132.73491478 364.77856064 C128.32095248 370.1996302 123.77458673 375.49948038 119.21538353 380.79809189 C114.95889553 385.7466478 110.75074472 390.73584604 106.54009056 395.72338486 C105.14782061 397.37015043 103.75236005 399.01416131 102.35600853 400.65746689 C98.10501419 405.66340716 93.87677186 410.68146444 89.73491478 415.77856064 C85.32095248 421.1996302 80.77458673 426.49948038 76.21538353 431.79809189 C71.95889553 436.7466478 67.75074472 441.73584604 63.54009056 446.72338486 C62.14782061 448.37015043 60.75236005 450.01416131 59.35600853 451.65746689 C55.10501419 456.66340716 50.87677186 461.68146444 46.73491478 466.77856064 C42.7773329 471.64235089 38.70699032 476.39987295 34.61406517 481.14941025 C31.58296189 484.67404983 28.60256162 488.23145946 25.67241478 491.84106064 C21.74094713 496.68417297 17.6936208 501.41730245 13.62041283 506.14086533 C10.51801953 509.74671067 7.47775697 513.39309855 4.48491478 517.09106064 C0.92579166 521.47893264 -2.80677194 525.66720302 -6.61274147 529.84106064 C-9.64135194 533.25959803 -12.4740412 536.81800168 -15.29633522 540.40746689 C-17.58857885 543.30200923 -17.58857885 543.30200923 -21.00727272 543.86059189 C-24.77938804 544.29300511 -28.54305124 544.49407833 -32.33539772 544.66527939 C-88.58702736 547.22791975 -144.14226007 566.49902006 -183.17670631 608.4435997 C-186.50243971 612.26607825 -189.23417698 616.43122083 -191.89789772 620.73168564 C-194.05985131 623.65513705 -195.56879035 624.76159741 -198.82758522 626.34106064 C-202.01296139 626.71858406 -202.01296139 626.71858406 -205.67702675 626.72201157 C-206.69177268 626.72903152 -206.69177268 626.72903152 -207.72701854 626.7361933 C-209.98706034 626.74813049 -212.24649431 626.73869137 -214.5065403 626.72924423 C-216.12974844 626.73331063 -217.75295381 626.7386529 -219.37615395 626.74517441 C-223.78128226 626.758849 -228.18619973 626.75354792 -232.59133172 626.74403715 C-237.20538221 626.73643742 -241.81941475 626.7434874 -246.43346596 626.74819565 C-254.18507053 626.75365392 -261.93658937 626.74646141 -269.68818092 626.73217392 C-278.63989487 626.71586453 -287.59140364 626.72112316 -296.54311258 626.73765314 C-304.23501232 626.75128658 -311.92685045 626.75317807 -319.61875838 626.74533713 C-324.20988905 626.7406686 -328.80092346 626.74001282 -333.39204788 626.74994659 C-337.71197942 626.75864041 -342.03164782 626.7525504 -346.35155106 626.73526382 C-347.93333437 626.7313111 -349.51513998 626.73241214 -351.09691429 626.73905182 C-361.49260334 626.77865066 -370.33035278 626.59160419 -378.28461647 619.11059189 C-383.87380367 612.70071391 -384.50531477 605.75080678 -384.28852272 597.45434189 C-383.72800012 590.88799384 -381.6196499 584.69435199 -379.53290749 578.47973251 C-377.13614442 571.21228896 -375.09841102 563.82789766 -373.01508522 556.46606064 C-370.79255806 548.64868067 -368.50062559 540.85548787 -366.14863014 533.07616806 C-364.1612425 526.49033447 -362.2398199 519.88655672 -360.32758522 513.27856064 C-358.19446935 505.91238823 -355.98385488 498.58041956 -353.64008522 491.27856064 C-351.51151433 484.64331992 -349.62741952 477.98161149 -347.87446022 471.23559189 C-346.25492606 465.10562358 -344.36911434 459.05255302 -342.53071022 452.98559189 C-340.9470542 447.75634474 -339.40121183 442.51633192 -337.85761452 437.27514267 C-335.2415516 428.39454227 -332.60205519 419.52877586 -329.76508522 410.71606064 C-327.13116255 402.51192224 -324.79958589 394.23469502 -322.49653053 385.93236923 C-315.3592989 360.20486741 -307.75159115 334.572118 -299.57758522 309.15356064 C-297.21477175 301.78714217 -295.15282021 294.3564603 -293.14692116 286.88573837 C-290.21463234 275.98663763 -287.03153269 265.1629143 -283.82758522 254.34106064 C-283.56445534 253.45112411 -283.30132545 252.56118759 -283.03022194 251.64428329 C-280.3814914 242.70250536 -277.66536916 233.78717834 -274.82758522 224.90356064 C-272.42080492 217.36837246 -270.21798389 209.78756685 -268.07758522 202.17284775 C-266.44391202 196.39596233 -264.67941243 190.67631287 -262.82758522 184.96606064 C-260.63803256 178.18756169 -258.75911193 171.37188225 -257.01508522 164.46606064 C-253.03396493 148.76364465 -248.05390126 133.35829306 -243.09321022 117.94262314 C-240.33779689 109.3615776 -237.82601468 100.77057943 -235.57831764 92.04174423 C-233.68263287 84.69567943 -231.48508943 77.46926368 -229.15180397 70.25024033 C-226.2697948 61.33065312 -223.52561672 52.42438497 -221.20258522 43.34106064 C-217.41716278 28.76350194 -212.87490095 16.23334885 -199.82758522 7.34106064 C-192.73995108 3.29726318 -187.29392182 1.23918291 -179.10885048 1.1416893 C-178.43027144 1.13238746 -177.75169241 1.12308562 -177.05255038 1.11350191 C-174.76478466 1.08351917 -172.47700576 1.06059304 -170.18915749 1.03783798 C-168.53206655 1.01812092 -166.87497928 0.99809377 -165.21789551 0.9777832 C-160.64291517 0.92345629 -156.06788662 0.87624317 -151.4928081 0.83102083 C-148.56213178 0.80180514 -145.63147443 0.77108742 -142.70081711 0.74002838 C-95.1352961 0.2406051 -47.56793737 0.05408092 0 0 Z " fill="#FDFDFD" transform="translate(1019.8275852203369,686.6589393615723)"/>
<path d="M0 0 C9.24828534 7.53022443 17.39408797 17.78030153 19 30 C19.96910861 45.25154534 18.01423137 59.50681901 7.68457031 71.53125 C5.15328574 74.35245397 2.55303028 77.10490312 -0.05859375 79.8515625 C-3.19477441 83.16590132 -6.00604599 86.68157455 -8.8125 90.27734375 C-11.59801763 93.74431837 -14.51243741 97.08812149 -17.4375 100.4375 C-21.97677321 105.63968206 -26.41737729 110.9017282 -30.765625 116.265625 C-35.56338071 122.13700436 -40.50569805 127.88877302 -45.41601562 133.66601562 C-50.1351961 139.22068034 -54.84075049 144.78059925 -59.4375 150.4375 C-63.84913055 155.85570579 -68.39323642 161.1527085 -72.94921875 166.44921875 C-79.26249661 173.78963301 -85.52900207 181.16522872 -91.625 188.6875 C-94.51249827 192.23896846 -97.47968021 195.6793029 -100.5625 199.0625 C-104.13831301 202.98972911 -107.46849671 207.04705607 -110.7578125 211.21484375 C-113.50902679 214.63229286 -116.33694591 217.97777444 -119.1875 221.3125 C-119.93640503 222.19276855 -119.93640503 222.19276855 -120.70043945 223.09082031 C-123.66730584 226.54780453 -126.77724413 229.77724413 -130 233 C-131.77387033 235.02651247 -133.52284795 237.05987287 -135.25 239.125 C-135.96833008 239.97868164 -135.96833008 239.97868164 -136.70117188 240.84960938 C-140.40850885 245.26591916 -144.05708994 249.72903935 -147.69921875 254.19921875 C-153.55899934 261.33243213 -159.56907324 268.34061784 -165.58886719 275.33886719 C-170.38116094 280.91108923 -175.0981522 286.53082033 -179.734375 292.234375 C-185.57383594 299.36254456 -191.57989248 306.35308027 -197.58862305 313.33862305 C-202.35743552 318.88341899 -207.04655792 324.47764381 -211.65625 330.15625 C-214.89898288 334.0907659 -218.23031608 337.946457 -221.55859375 341.80859375 C-224.58958284 345.33317903 -227.56992581 348.89048832 -230.5 352.5 C-234.88712902 357.90076172 -239.41223412 363.174677 -243.94921875 368.44921875 C-250.19427321 375.71031003 -256.3963115 383.00553429 -262.4375 390.4375 C-266.84913055 395.85570579 -271.39323642 401.1527085 -275.94921875 406.44921875 C-286.54504134 418.76892478 -296.87885697 431.28652061 -307 444 C-314.30259873 441.9589381 -321.28505177 439.39843648 -328.3125 436.5625 C-336.46821589 433.32053292 -344.55220843 430.38861033 -353 428 C-353.71945801 427.77094971 -354.43891602 427.54189941 -355.18017578 427.3059082 C-361.47837613 425.32240426 -367.73542882 423.99164471 -374.25 422.9375 C-375.78817383 422.68371582 -375.78817383 422.68371582 -377.35742188 422.42480469 C-387.85982679 420.75586772 -398.40015968 419.79290144 -409 419 C-408.21814917 415.45718066 -407.07082665 413.51052233 -404.75 410.6875 C-404.02554688 409.80578125 -403.30109375 408.9240625 -402.5546875 408.015625 C-399.14059413 403.98553313 -395.6766574 400.00025574 -392.20214844 396.0222168 C-388.04726629 391.25098363 -384.00388804 386.39834404 -380 381.5 C-374.94955862 375.32256003 -369.79353275 369.25422109 -364.54516602 363.24438477 C-360.70537326 358.83931046 -356.98639848 354.35017647 -353.30859375 349.80859375 C-350.58655909 346.4970152 -347.79860269 343.24686941 -345 340 C-341.44542508 335.875357 -337.93207702 331.72792096 -334.5 327.5 C-328.62596304 320.2712302 -322.51941302 313.24297133 -316.43847656 306.18847656 C-310.63088596 299.44758829 -304.88120059 292.67542342 -299.26953125 285.76953125 C-295.37281614 281.01433157 -291.38362557 276.33765538 -287.40283203 271.65283203 C-286.02522412 270.02971933 -284.65068243 268.4040696 -283.27734375 266.77734375 C-279.00959565 261.72302724 -274.73016986 256.67991549 -270.41552734 251.66552734 C-265.62078178 246.09268044 -260.90314392 240.47077418 -256.265625 234.765625 C-249.96580646 227.07550168 -243.47349846 219.54387831 -237 212 C-226.39071913 199.70492795 -226.39071913 199.70492795 -216.125 187.125 C-212.18470249 182.14905962 -208.02228661 177.38145124 -203.8503418 172.6003418 C-199.90971493 168.07549575 -196.08490938 163.47182387 -192.30859375 158.80859375 C-189.58655909 155.4970152 -186.79860269 152.24686941 -184 149 C-180.44542508 144.875357 -176.93207702 140.72792096 -173.5 136.5 C-167.62596304 129.2712302 -161.51941302 122.24297133 -155.43847656 115.18847656 C-149.63088596 108.44758829 -143.88120059 101.67542342 -138.26953125 94.76953125 C-134.37281614 90.01433157 -130.38362557 85.33765538 -126.40283203 80.65283203 C-125.02522412 79.02971933 -123.65068243 77.4040696 -122.27734375 75.77734375 C-118.00959565 70.72302724 -113.73016986 65.67991549 -109.41552734 60.66552734 C-104.62436444 55.0968445 -99.90859158 49.48056215 -95.27734375 43.77734375 C-92.25942826 40.09683275 -89.177202 36.47290463 -86.09448242 32.84667969 C-83.10632038 29.32527307 -80.16415027 25.77071538 -77.25 22.1875 C-75.83351376 20.45818553 -74.41686234 18.72900634 -73 17 C-72.14535156 15.93845703 -72.14535156 15.93845703 -71.2734375 14.85546875 C-53.0126907 -7.08339056 -24.66419669 -17.45078539 0 0 Z " fill="#000000" transform="translate(1413,811)"/>
<path d="M0 0 C1.98 0.495 1.98 0.495 4 1 C4.16491943 1.60545654 4.32983887 2.21091309 4.49975586 2.8347168 C8.98380804 19.22929337 13.88628213 35.46577206 18.96728516 51.68408203 C21.15474182 58.70773129 23.25865851 65.75634337 25.35009766 72.80908203 C25.97443743 74.91382474 26.60226706 77.01750111 27.23046875 79.12109375 C29.74532812 87.57674975 32.13811526 96.06287676 34.5 104.5625 C36.9528294 113.37577881 39.54116068 122.11821482 42.31689453 130.83544922 C47.66539197 147.78318985 52.59447869 164.85017889 57.390625 181.9609375 C60.67709412 193.63302022 64.19979181 205.2233017 67.84106445 216.7890625 C68.90789976 220.18864519 69.9603522 223.59200997 71 227 C71.30454102 227.99636475 71.60908203 228.99272949 71.92285156 230.01928711 C73.54696405 235.59916348 74.40951835 240.49615749 74.375 246.3125 C74.38273437 247.62863281 74.39046875 248.94476562 74.3984375 250.30078125 C73.55018982 258.17617884 69.21099941 262.19037552 63.5 267.1875 C54.83128569 271.67665563 44.02860743 271.2997369 34.44970703 271.31884766 C33.26865387 271.32889328 32.08760071 271.3389389 30.87075806 271.34928894 C26.99978045 271.37994439 23.12887242 271.39713475 19.2578125 271.4140625 C16.52569197 271.43178197 13.79359436 271.45231887 11.06149292 271.4727478 C5.33740811 271.51408967 -0.38668227 271.54861306 -6.11083984 271.578125 C-14.06851243 271.61915412 -22.02607255 271.67191297 -29.98365569 271.72740483 C-58.63896673 271.92558692 -58.63896673 271.92558692 -71.45452881 271.95928955 C-76.0916809 271.97460492 -80.72616107 272.02387327 -85.36236703 272.11096966 C-88.20397249 272.16173684 -91.04566504 272.19664867 -93.8875277 272.22950053 C-95.89065735 272.25847959 -97.89344753 272.30852054 -99.89614677 272.35915565 C-106.84100608 272.42804877 -111.42098829 272.30587542 -117 268 C-120.37584408 264.53975981 -122.68946865 260.87844808 -125.1875 256.75 C-136.99407286 238.00136499 -158.3433752 225.96184176 -177 215 C-176.6456944 209.40703303 -174.28232942 206.41595527 -170.625 202.4375 C-169.52681407 201.20099106 -168.42916977 199.96400089 -167.33203125 198.7265625 C-166.49599365 197.79505371 -166.49599365 197.79505371 -165.64306641 196.84472656 C-163.14824137 194.0437016 -160.72860459 191.18140878 -158.3125 188.3125 C-157.85681641 187.77407471 -157.40113281 187.23564941 -156.93164062 186.6809082 C-154.12497454 183.35884534 -151.36432693 180.00300424 -148.625 176.625 C-144.43767881 171.47542187 -140.08979747 166.47745842 -135.72705078 161.47705078 C-132.73936182 158.04168938 -129.81647466 154.57864962 -127 151 C-123.11007785 146.05741393 -118.9840374 141.33751628 -114.84985352 136.59985352 C-110.90946268 132.07510929 -107.08476431 127.47164474 -103.30859375 122.80859375 C-100.58655909 119.4970152 -97.79860269 116.24686941 -95 113 C-91.44542508 108.875357 -87.93207702 104.72792096 -84.5 100.5 C-78.62596304 93.2712302 -72.51941302 86.24297133 -66.43847656 79.18847656 C-60.62968299 72.44619199 -54.87958612 65.67200883 -49.265625 58.765625 C-43.4259511 51.63719548 -37.41982525 44.6462456 -31.41064453 37.66064453 C-25.8415127 31.18486866 -20.37863925 24.63560386 -15 18 C-10.06656902 11.94010227 -5.1179454 5.90532161 0 0 Z " fill="#FDFDFD" transform="translate(1284,1042)"/>
<path d="M0 0 C2.16084124 -0.00230974 4.32168169 -0.00548968 6.48252052 -0.00945449 C12.36788666 -0.01774054 18.25318725 -0.01370562 24.1385535 -0.00748205 C30.50604419 -0.00293305 36.87352407 -0.00995339 43.24101257 -0.01544189 C54.97581702 -0.02379987 66.71059837 -0.02310596 78.44540392 -0.01761896 C89.28832139 -0.01257429 100.1312313 -0.01128074 110.9741497 -0.01366425 C112.05586131 -0.0138934 112.05586131 -0.0138934 113.15942567 -0.01412719 C116.0872618 -0.01474993 119.01509793 -0.01538674 121.94293406 -0.01604671 C149.36901193 -0.02215513 176.79507665 -0.0166329 204.22115249 -0.00585292 C228.55319867 0.00363824 252.88522391 0.00278707 277.2172699 -0.0067749 C304.59688114 -0.01749872 331.97648078 -0.02172281 359.35609382 -0.01555037 C362.27807518 -0.014909 365.20005653 -0.01428332 368.12203789 -0.01366425 C368.84142847 -0.01350609 369.56081905 -0.01334794 370.30200934 -0.01318499 C381.13511516 -0.01091615 391.96821256 -0.01355916 402.80131721 -0.01862335 C415.12612592 -0.02435639 427.4509064 -0.02268991 439.77571268 -0.01206186 C446.05844059 -0.00682182 452.34112612 -0.00471992 458.62385368 -0.01136017 C464.38443357 -0.01735629 470.1449321 -0.01398453 475.9055047 -0.00340506 C477.97993966 -0.0011865 480.05438162 -0.00227223 482.12881202 -0.00715664 C524.89882953 -0.10007069 559.62678612 12.29209611 590.57981873 41.91998291 C591.77986887 43.06233029 592.99973793 44.18379525 594.22337341 45.30084229 C618.26441767 67.89363086 627.23158763 103.03101634 636.86015701 133.36342621 C637.93497662 136.74356978 639.01878926 140.12083239 640.10105896 143.49859619 C646.45612764 163.35137489 652.73332259 183.22915555 658.99241638 203.11236572 C664.73707069 221.35607971 670.54899074 239.57765029 676.37900543 257.79421616 C685.71956362 286.98104726 694.97981151 316.19251244 704.19700623 345.41851807 C705.19403485 348.57982679 706.19110936 351.74112104 707.18821716 354.90240479 C707.55506182 356.06553129 707.55506182 356.06553129 707.92931747 357.2521553 C713.05067263 373.48858332 718.19988585 389.71610886 723.35618591 405.94146729 C729.56411716 425.47671575 735.75295614 445.01785447 741.91868591 464.56646729 C748.38794549 485.07630737 754.89305249 505.57451432 761.41868591 526.06646729 C768.14419112 547.18606249 774.85641689 568.30972502 781.54368591 589.44146729 C787.97299912 609.75657232 794.40874963 630.06960791 800.85618591 650.37896729 C801.06220806 651.02797123 801.26823021 651.67697517 801.48049545 652.3456459 C806.40673458 667.86396275 811.3383565 683.3805562 816.27806091 698.89459229 C816.72212533 700.28936668 817.16618661 701.68414207 817.61024475 703.07891846 C820.27374547 711.444786 820.27374547 711.444786 822.93815613 719.81036377 C827.50402861 734.14379532 832.06045655 748.47990622 836.56712341 762.83209229 C844.59111853 788.37563129 852.76662273 813.8603108 861.15166092 839.287117 C868.38512898 861.22321916 875.4454475 883.20742784 882.36375427 905.24542236 C887.29726424 920.95636252 892.31072681 936.63976694 897.3714447 952.31018066 C907.84732216 984.76161926 907.84732216 984.76161926 912.41868591 999.87896729 C912.92154114 1001.52771851 912.92154114 1001.52771851 913.43455505 1003.20977783 C916.87298883 1014.76178108 919.54608535 1026.02399812 919.41868591 1038.12896729 C919.41111267 1039.16053955 919.40353943 1040.19211182 919.39573669 1041.25494385 C918.92345759 1063.36587955 909.68765122 1080.26486971 894.06712341 1095.54302979 C875.12404097 1112.76958696 853.53319172 1114.56842402 829.16823483 1114.50285625 C827.07948232 1114.50464173 824.99073042 1114.50730394 822.90198001 1114.51075712 C817.17229475 1114.51769876 811.44267902 1114.51223008 805.71299699 1114.50470103 C799.47566146 1114.49871682 793.23833455 1114.50436415 787.00099903 1114.50852185 C776.07253846 1114.51420362 765.14410215 1114.51252534 754.21564293 1114.50583649 C742.49379939 1114.4986984 730.77196688 1114.49593563 719.05012131 1114.49847603 C718.30879965 1114.49863389 717.56747799 1114.49879176 716.80369204 1114.49895441 C713.02341452 1114.49977846 709.24313701 1114.50067132 705.46285951 1114.50158678 C678.12180683 1114.50805288 650.78076231 1114.50471199 623.43971062 1114.49599266 C596.35902769 1114.48737192 569.27834862 1114.482461 542.19766426 1114.48266029 C540.49653175 1114.48266822 538.79539923 1114.48267594 537.09426671 1114.48268346 C530.25803893 1114.48272084 523.42181115 1114.48278726 516.58558336 1114.48288927 C497.47589183 1114.48316689 478.36620034 1114.4827782 459.25650883 1114.48190022 C458.38632047 1114.48186054 457.51613211 1114.48182087 456.61957441 1114.48178 C428.8941481 1114.48047217 401.168723 1114.47630141 373.44329739 1114.47004223 C372.54412664 1114.46983929 371.6449559 1114.46963635 370.71853756 1114.46942726 C356.11680546 1114.46611858 341.5150734 1114.46262325 326.91334134 1114.45911855 C268.99951324 1114.44522946 211.08568951 1114.43858547 153.17185974 1114.43927002 C151.34122311 1114.43929041 149.51058648 1114.43931062 147.67994985 1114.43933066 C144.02300956 1114.43937084 140.36606927 1114.43941161 136.70912898 1114.43945277 C128.50945385 1114.43954419 120.30977872 1114.43962854 112.11010359 1114.43969935 C110.2939884 1114.43971512 108.47787321 1114.43973157 106.66175802 1114.43974868 C58.14166375 1114.440194 9.62157008 1114.43572581 -38.89852375 1114.42939645 C-39.74563629 1114.42928628 -40.59274883 1114.42917611 -41.46553144 1114.4290626 C-56.89794 1114.42705508 -56.89794 1114.42705508 -64.46048004 1114.426038 C-83.08884237 1114.4235428 -101.71720449 1114.42160135 -120.34556699 1114.42122436 C-121.18485191 1114.42120683 -122.02413683 1114.4211893 -122.88885462 1114.42117123 C-126.27127937 1114.42110203 -129.65370412 1114.42103678 -133.03612887 1114.42097375 C-164.4211305 1114.42038766 -195.80612855 1114.41661916 -227.19112868 1114.40649506 C-230.2004693 1114.40553748 -233.20980992 1114.40459415 -236.21915054 1114.40366173 C-236.95768992 1114.40343119 -237.69622929 1114.40320066 -238.45714865 1114.40296314 C-250.1474168 1114.39940017 -261.83768253 1114.39916077 -273.52795107 1114.40029756 C-285.02511149 1114.40134216 -296.52226496 1114.39871396 -308.01942404 1114.39244743 C-314.16848918 1114.38919435 -320.31754365 1114.38751389 -326.46660931 1114.39020803 C-332.06235588 1114.39262415 -337.65808115 1114.39043186 -343.25382503 1114.38458991 C-345.26373027 1114.3832916 -347.27363746 1114.3836563 -349.28354186 1114.38590652 C-373.50257796 1114.41083416 -394.65547687 1113.70552447 -414.01881409 1097.25396729 C-414.68397034 1096.73318604 -415.34912659 1096.21240479 -416.03443909 1095.67584229 C-429.45895117 1084.78824587 -440.1193417 1066.53363358 -442.01881409 1049.25396729 C-442.26992206 1045.83646647 -442.39413178 1042.4299016 -442.45631409 1039.00396729 C-442.47887268 1038.1954834 -442.50143127 1037.38699951 -442.52467346 1036.55401611 C-442.46695603 1021.75959602 -436.89165096 1007.06358924 -432.39381409 993.12896729 C-431.85504078 991.44342525 -431.31680253 989.7577121 -430.77906799 988.07183838 C-429.44207544 983.8859691 -428.09749947 979.70259094 -426.74928284 975.52032471 C-426.09063834 973.4768097 -425.43324872 971.43289846 -424.77662659 969.38873291 C-422.85612169 963.41198921 -420.92818444 957.43767934 -418.99537659 951.46490479 C-415.3085193 940.06955267 -411.64395661 928.66701512 -407.97810364 917.26489258 C-406.7985864 913.59656004 -405.61842544 909.92843502 -404.43824768 906.26031494 C-402.61733863 900.59895208 -400.80029291 894.93636259 -398.98634338 889.27276611 C-398.37626675 887.36925928 -397.76523344 885.46605854 -397.15284729 883.56329346 C-394.65848985 875.81056087 -392.22160462 868.0553354 -390.03338623 860.21002197 C-385.72857441 844.777241 -380.69672229 829.58163139 -375.72347641 814.35485077 C-373.63540481 807.95618795 -371.55765451 801.55415835 -369.47805977 795.15273666 C-368.71077679 792.79114041 -367.94310542 790.42967064 -367.17541504 788.06820679 C-363.55764975 776.93585113 -359.97771636 765.79222074 -356.45631409 754.62896729 C-355.97113666 753.09185432 -355.48594768 751.554745 -355.00074768 750.01763916 C-354.75297577 749.23270081 -354.50520386 748.44776245 -354.24992371 747.63903809 C-353.86868851 746.43135773 -353.86868851 746.43135773 -353.47975159 745.19927979 C-353.22084137 744.37885193 -352.96193115 743.55842407 -352.69517517 742.71313477 C-348.58858195 729.71147761 -344.43666551 716.72416562 -340.29280853 703.7343483 C-339.10288388 700.0041922 -337.9131614 696.27397163 -336.72340393 692.54376221 C-335.27243625 687.9946619 -333.82142306 683.44557612 -332.37028503 678.89653015 C-329.08515002 668.59812491 -325.80150674 658.29924503 -322.51881409 648.00006104 C-315.10537286 624.74168806 -307.69161401 601.48342387 -300.26100159 578.23052979 C-300.02184713 577.48212893 -299.78269268 576.73372807 -299.53629112 575.96264839 C-298.32704356 572.17852687 -297.11774753 568.39442085 -295.90843201 564.61032104 C-295.66884136 563.86061161 -295.42925072 563.11090218 -295.18239975 562.33847427 C-294.69826431 560.82355783 -294.21412582 559.30864237 -293.72998428 557.79372787 C-286.42705259 534.94193083 -279.14197788 512.08452425 -271.87273788 489.22198868 C-264.77321176 466.89340379 -257.65225127 444.57174064 -250.51881409 422.25396729 C-242.49915984 397.16321702 -234.49771648 372.06675777 -226.51589108 346.96394825 C-225.43621422 343.56840896 -224.35645272 340.1728966 -223.27662659 336.77740479 C-223.06256227 336.10427435 -222.84849796 335.43114391 -222.62794685 334.73761559 C-219.24080983 324.08749989 -215.84647161 313.43969371 -212.44850159 302.79302979 C-211.97991622 301.32473858 -211.51133406 299.85644634 -211.04275513 298.38815308 C-210.81081923 297.66138807 -210.57888334 296.93462307 -210.33991909 296.18583488 C-209.17036283 292.52105247 -208.00082356 288.85626463 -206.83131409 285.19146729 C-206.60068142 284.46877907 -206.37004875 283.74609085 -206.13242722 283.00150299 C-199.2695361 261.49560229 -192.44974422 239.97662588 -185.66749573 218.44512939 C-179.38663509 198.51119722 -173.00727669 178.61002024 -166.57887268 158.72320557 C-162.92188069 147.39392292 -159.31919381 136.05181829 -155.83522034 124.66802979 C-155.49950516 123.57545364 -155.16378998 122.4828775 -154.81790161 121.35719299 C-153.24293316 116.23080953 -151.67908926 111.10168338 -150.13917542 105.96466064 C-143.70562369 84.792559 -134.52108243 66.11583687 -120.01881409 49.25396729 C-119.2208844 48.31037354 -118.42295471 47.36677979 -117.60084534 46.39459229 C-93.86215168 18.98796405 -60.43658219 3.44854677 -24.67509551 0.4360798 C-16.46346886 -0.12690271 -8.22624375 -0.01939217 0 0 Z M-111.01881409 42.25396729 C-111.68139221 42.85209229 -112.34397034 43.45021729 -113.02662659 44.06646729 C-130.89159791 60.84652132 -140.7999707 83.31579806 -148.01881409 106.25396729 C-148.56408752 107.97293213 -148.56408752 107.97293213 -149.12037659 109.72662354 C-149.72123401 111.66765425 -150.31233304 113.61173165 -150.89381409 115.55865479 C-152.54307577 120.97602128 -154.28634953 126.36272595 -156.01881409 131.75396729 C-158.37884516 139.10717505 -160.71709366 146.46417997 -162.96803284 153.85162354 C-164.71061372 159.49395793 -166.5127427 165.11735107 -168.30763245 170.7432251 C-170.01467582 176.09454397 -171.71144799 181.44885871 -173.39479065 186.80767822 C-175.42436741 193.26686581 -177.48529241 199.71162828 -179.64381409 206.12896729 C-181.49078227 211.6288281 -183.2395375 217.14925545 -184.92897034 222.69927979 C-186.9840252 229.40214691 -189.11581795 236.08100553 -191.23219299 242.76470947 C-192.01172952 245.23154822 -192.78737575 247.69957641 -193.56178284 250.16802979 C-195.86669657 257.50774868 -198.19108217 264.83713846 -200.64381409 272.12896729 C-202.46853747 277.56271635 -204.19399463 283.01665738 -205.86256409 288.50006104 C-207.63666958 294.25991028 -209.47497258 299.99911162 -211.30690002 305.74078369 C-213.01412297 311.09293674 -214.71119342 316.44804833 -216.39479065 321.80767822 C-218.42436738 328.2668657 -220.48528563 334.71163055 -222.64381409 341.12896729 C-224.51434317 346.69885485 -226.28723774 352.28979832 -227.99928284 357.91021729 C-233.4050459 375.63946318 -239.00393864 393.31656123 -244.90553284 410.88677979 C-246.70023838 416.31497689 -248.35325841 421.78507373 -250.01881409 427.25396729 C-253.0197355 437.03591815 -256.15383758 446.7642168 -259.43214417 456.45709229 C-261.37473617 462.22562573 -263.18934137 468.02587318 -264.9677887 473.84698486 C-267.12862513 480.85150807 -269.40780632 487.81856443 -271.66334534 494.79302979 C-273.8635665 501.6129593 -276.01462245 508.44519039 -278.11207581 515.29742432 C-279.33012698 519.26904515 -280.57680152 523.23123992 -281.83131409 527.19146729 C-282.08139221 527.98158203 -282.33147034 528.77169678 -282.58912659 529.58575439 C-283.12220766 531.26919422 -283.65557826 532.95254239 -284.18922424 534.63580322 C-285.04404144 537.33358416 -285.89665654 540.03205572 -286.74928284 542.73052979 C-289.74642296 552.19963492 -292.79791094 561.64585249 -295.96022034 571.06109619 C-297.71115532 576.28919037 -299.36553719 581.54076144 -300.96803284 586.81646729 C-304.93323372 599.78812817 -309.10843071 612.69720499 -313.22584534 625.62115479 C-314.43492804 629.41697374 -315.64035767 633.21392593 -316.84303284 637.01177979 C-319.41585204 645.12989862 -321.99101422 653.24469834 -324.70631409 661.31646729 C-326.50858987 666.68246637 -328.20953364 672.0697003 -329.85865784 677.48443604 C-333.71318629 690.00840895 -337.73734234 702.47702867 -341.90943909 714.89849854 C-343.31519893 719.15042707 -344.62840159 723.42710265 -345.93287659 727.71099854 C-347.97155826 734.36238084 -350.08250395 740.99113079 -352.18482971 747.62261963 C-352.75438335 749.41964807 -353.32336855 751.21685675 -353.89186096 753.01422119 C-357.11208346 763.19456355 -360.34398748 773.36693192 -363.78053284 783.47662354 C-364.82159977 786.65237029 -365.81339607 789.83494564 -366.78834534 793.03131104 C-369.67394364 802.45310938 -372.75450923 811.81149679 -375.80982971 821.17926025 C-378.67329929 829.96329069 -381.51546353 838.7487232 -384.19606018 847.59063721 C-385.16829156 850.73783962 -386.21838046 853.85273017 -387.30787659 856.96099854 C-388.14918027 859.67443405 -388.80889362 862.4237209 -389.48756409 865.18145752 C-390.28274252 868.28360354 -391.24035178 871.32613077 -392.20631409 874.37896729 C-392.41772034 875.04855469 -392.62912659 875.71814209 -392.84693909 876.40802002 C-393.31371807 877.88454195 -393.78170805 879.36068145 -394.25074768 880.83648682 C-395.07861907 883.4422028 -395.90228919 886.04922816 -396.72584534 888.65631104 C-399.71217242 898.09254794 -402.75410791 907.50436159 -405.90553284 916.88677979 C-407.70024827 922.31500681 -409.35225108 927.7853594 -411.01881409 933.25396729 C-413.45565817 941.17834528 -415.9381815 949.08325818 -418.58131409 956.94146729 C-420.47256931 962.57399063 -422.2680191 968.22670607 -423.99928284 973.91021729 C-425.09635023 977.50826206 -426.21025636 981.10084616 -427.33131409 984.69146729 C-427.53482483 985.34534424 -427.73833557 985.99922119 -427.94801331 986.6729126 C-429.20333025 990.69258761 -430.48579393 994.70246183 -431.78834534 998.70709229 C-433.57538176 1004.2095065 -435.3123583 1009.72607464 -437.01881409 1015.25396729 C-437.3861969 1016.42701416 -437.75357971 1017.60006104 -438.13209534 1018.80865479 C-443.239403 1037.44669696 -440.34490534 1056.28389314 -431.64381409 1073.25396729 C-422.05073249 1089.89164443 -407.79092976 1103.8738251 -388.91236897 1109.11667154 C-377.87843148 1111.5383428 -367.16311215 1111.67372964 -355.90075302 1111.63149071 C-353.77868816 1111.63462461 -351.65662491 1111.63907168 -349.53456521 1111.64470381 C-343.71238478 1111.65635998 -337.89035407 1111.64940978 -332.06817615 1111.63936995 C-325.73064162 1111.63174995 -319.39312979 1111.64154351 -313.0555985 1111.64909995 C-301.9513059 1111.65993164 -290.84705799 1111.65970983 -279.74276352 1111.65195847 C-267.83224828 1111.64369504 -255.9217587 1111.64197143 -244.01124191 1111.64817047 C-243.25802994 1111.64855799 -242.50481796 1111.64894551 -241.72878138 1111.64934477 C-238.66090702 1111.65094464 -235.5930327 1111.65259077 -232.5251584 1111.65429559 C-203.97240753 1111.67015124 -175.41967384 1111.67124524 -146.86692047 1111.66285324 C-146.02141095 1111.66260485 -145.17590142 1111.66235647 -144.3047704 1111.66210056 C-143.03447388 1111.66172737 -143.03447388 1111.66172737 -141.73851481 1111.66134665 C-115.93468071 1111.65377607 -90.13085371 1111.65182341 -64.32701874 1111.65541458 C-62.5988398 1111.65564702 -60.87066085 1111.65587849 -59.14248191 1111.65610899 C-52.19762841 1111.65704039 -45.25277491 1111.6579964 -38.30792142 1111.65898828 C-18.8947761 1111.66173922 0.51836925 1111.66345108 19.93151474 1111.66434669 C20.81551663 1111.66438763 21.69951852 1111.66442857 22.61030835 1111.66447075 C50.77566935 1111.66569846 78.94102787 1111.66231847 107.10638809 1111.65579796 C108.47654927 1111.65548184 108.47654927 1111.65548184 109.87439048 1111.65515933 C124.70796792 1111.65172451 139.54154532 1111.64806611 154.37512271 1111.64438881 C213.21647355 1111.62981736 272.05780391 1111.63049838 330.89915466 1111.64508057 C345.73002241 1111.64874412 360.56089016 1111.65237727 375.39175797 1111.65579796 C376.3049426 1111.6560093 377.21812723 1111.65622065 378.15898412 1111.6564384 C406.29866629 1111.66290634 434.43834675 1111.6656499 462.57802963 1111.66434669 C463.46132795 1111.66430594 464.34462627 1111.66426519 465.2546912 1111.6642232 C484.64383245 1111.6632858 504.03297351 1111.66138494 523.42211458 1111.65861519 C530.35948655 1111.65762776 537.29685853 1111.65668852 544.2342305 1111.65576305 C545.96006836 1111.65553089 547.68590621 1111.6552947 549.41174406 1111.65505446 C575.21160568 1111.65147309 601.0114593 1111.65452413 626.81131992 1111.66210056 C627.65716062 1111.66234894 628.50300133 1111.66259733 629.37447357 1111.66285324 C630.21875402 1111.66310129 631.06303447 1111.66334934 631.93289917 1111.6636049 C660.39901753 1111.67187672 688.86511527 1111.66884143 717.33123067 1111.65301101 C720.38722642 1111.65135393 723.44322219 1111.64974382 726.49921799 1111.64817047 C727.62421333 1111.64758454 727.62421333 1111.64758454 728.77193584 1111.64698677 C740.65260213 1111.64106718 752.5332428 1111.64519189 764.41390677 1111.65347749 C776.0929109 1111.66140889 787.77186306 1111.65838264 799.45086277 1111.64443523 C805.69943825 1111.63727768 811.94791648 1111.63490278 818.19648901 1111.64565317 C823.87904777 1111.65533038 829.56142286 1111.65124671 835.24396819 1111.63611119 C837.28864192 1111.63308563 839.3333308 1111.63509876 841.37799254 1111.64272901 C864.10077585 1111.7215194 880.90186478 1105.80336943 897.79368591 1089.81646729 C904.92450062 1082.25190472 909.41674308 1073.9644531 912.98118591 1064.25396729 C913.44524841 1062.99133057 913.44524841 1062.99133057 913.91868591 1061.70318604 C923.18459608 1035.19733723 912.77341662 1007.40500405 904.28196716 982.19342041 C901.99086198 975.36974548 899.8302008 968.53659014 897.86399841 961.61334229 C896.08571524 955.43169124 894.03771847 949.34787016 891.98118591 943.25396729 C889.72810703 936.57750736 887.5255456 929.90926712 885.60618591 923.12896729 C883.15778748 914.49417404 880.24433794 906.01615795 877.37184143 897.51583862 C874.72417508 889.66718796 872.21037263 881.81406667 870.04368591 873.81646729 C867.42224706 864.181954 864.06392326 854.8364867 860.67832947 845.45172119 C857.57992767 836.8585176 854.68121926 828.2762683 852.21946716 819.47662354 C850.6604873 814.00879994 848.8009085 808.63926097 846.98118591 803.25396729 C843.96050727 794.29911221 841.17356353 785.31166049 838.55784607 776.23199463 C836.1118262 767.84179439 833.48010464 759.52600731 830.48118591 751.31646729 C828.43880148 745.69516771 826.70924292 740.02049451 825.06712341 734.27374268 C823.21423558 727.87318036 821.1131743 721.56633475 818.98118591 715.25396729 C816.70688677 708.51540016 814.48676212 701.7832849 812.54368591 694.94146729 C810.07696703 686.26482675 807.16283468 677.74410328 804.28269958 669.1975708 C801.96886155 662.30245913 799.78419238 655.39682336 797.79368591 648.40240479 C796.18276938 642.79729795 794.34905922 637.2781877 792.48118591 631.75396729 C790.39276148 625.57746867 788.39084104 619.40004711 786.60618591 613.12896729 C784.45738153 605.59343411 781.98331861 598.17882948 779.48118591 590.75396729 C776.80509022 582.8126017 774.21580939 574.87798259 771.93211365 566.81549072 C770.01139128 560.14189033 767.76794903 553.58145712 765.54368591 547.00396729 C762.49427768 537.98139472 759.68526312 528.94322796 757.15159607 519.76373291 C755.22863965 512.89165889 752.92303664 506.19642679 750.51365662 499.48175049 C748.44875917 493.69422102 746.64390423 487.8772559 744.96531677 481.96783447 C743.15332054 475.66714567 741.07842562 469.46476243 738.98118591 463.25396729 C736.50682628 455.91234176 734.1259542 448.56913719 731.98509216 441.12384033 C730.08899672 434.55377606 728.09171483 428.0155109 726.07270813 421.48233032 C725.50159727 419.632577 724.93383408 417.78179111 724.36619568 415.93096924 C722.52271641 409.97890842 720.58550742 404.08848164 718.44993591 398.23443604 C716.35283897 392.44594607 714.59160758 386.61843319 712.94212341 380.6885376 C711.38908633 375.13769267 709.68802785 369.63413352 707.98118591 364.12896729 C707.60453796 362.91265625 707.22789001 361.69634521 706.83982849 360.44317627 C703.12218149 348.50685464 699.15663417 336.65376509 695.14329529 324.81402588 C692.54458323 317.12254014 690.13296588 309.42415603 687.94871521 301.60186768 C686.32644232 295.98838592 684.42786246 290.47137015 682.54368591 284.94146729 C679.8214731 276.87191282 677.19061316 268.80605434 674.86424255 260.61407471 C673.08579029 254.43219579 671.0376866 248.3481622 668.98118591 242.25396729 C665.96091405 233.29896633 663.1735686 224.31167807 660.55784607 215.23199463 C658.1118262 206.84179439 655.48010464 198.52600731 652.48118591 190.31646729 C650.69800906 185.40306977 649.11285916 180.46333271 647.66868591 175.44146729 C644.77277508 165.40442628 641.58102438 155.4704858 638.36106873 145.53326416 C637.01546456 141.37040268 635.68894661 137.20153533 634.3618927 133.0327301 C633.06878746 128.97824369 631.76648153 124.926742 630.46281433 120.87564087 C629.81812468 118.86651245 629.1767815 116.85630654 628.53910828 114.84494019 C619.03957335 84.90992262 606.62869455 56.85808009 581.98118591 36.25396729 C581.1084906 35.48181885 580.23579529 34.70967041 579.33665466 33.91412354 C563.96036813 20.55507406 546.04325197 11.7534316 526.41868591 6.37896729 C525.73709412 6.18786377 525.05550232 5.99676025 524.35325623 5.79986572 C508.97780388 1.90832955 492.95493517 1.96269309 477.2099762 2 C475.06379779 1.99769066 472.91762018 1.99451097 470.7714442 1.99054551 C464.92188455 1.98225383 459.07239079 1.98629702 453.22283101 1.99251795 C446.89550297 1.99706468 440.56818583 1.99004767 434.24085999 1.98455811 C422.57790428 1.97619756 410.91497504 1.97689546 399.25201869 1.98238104 C388.47385105 1.98742516 377.69569101 1.98871952 366.91752243 1.98633575 C366.20076191 1.98618298 365.4840014 1.98603021 364.74552086 1.98587281 C361.83545673 1.98525007 358.9253926 1.98461326 356.01532848 1.98395329 C328.75080892 1.9778438 301.48630259 1.98336845 274.22178507 1.99414708 C250.03757436 2.0036353 225.85338472 2.00278975 201.66917419 1.9932251 C174.455455 1.9824981 147.24174748 1.97827922 120.02802646 1.98444963 C117.12284462 1.98509099 114.21766277 1.98571668 111.31248093 1.98633575 C110.23960175 1.98657299 110.23960175 1.98657299 109.14504825 1.98681501 C98.37919302 1.98908285 87.61334627 1.98644267 76.84749222 1.98137665 C64.59554538 1.97563983 52.34362969 1.97731761 40.09168448 1.98793814 C33.84719569 1.99317372 27.60274952 1.99528783 21.35826111 1.98863983 C15.63022734 1.98263417 9.90227526 1.98603085 4.1742488 1.99659494 C2.11388017 1.99880956 0.05350448 1.99773689 -2.00685953 1.99284336 C-44.73453571 1.89923107 -79.48936177 12.57918864 -111.01881409 42.25396729 Z " fill="#FEFCFC" transform="translate(761.0188140869141,442.74603271484375)"/>
<path d="M0 0 C28.86668829 -1.54642973 58.46274551 14.33672014 79.40234375 33.015625 C82.1750272 35.52411172 84.89763985 38.08065623 87.59863281 40.66601562 C88.79868295 41.80836301 90.01855201 42.92982797 91.2421875 44.046875 C115.28323175 66.63966358 124.25040171 101.77704905 133.8789711 132.10945892 C134.95379071 135.48960249 136.03760334 138.8668651 137.11987305 142.24462891 C143.47494173 162.0974076 149.75213668 181.97518827 156.01123047 201.85839844 C161.75588477 220.10211242 167.56780483 238.32368301 173.39781952 256.54024887 C182.7383777 285.72707998 191.9986256 314.93854515 201.21582031 344.16455078 C202.21284893 347.3258595 203.20992345 350.48715375 204.20703125 353.6484375 C204.5738759 354.81156401 204.5738759 354.81156401 204.94813156 355.99818802 C210.06948672 372.23461603 215.21869994 388.46214157 220.375 404.6875 C226.58293125 424.22274846 232.77177022 443.76388718 238.9375 463.3125 C245.40675958 483.82234008 251.91186658 504.32054704 258.4375 524.8125 C265.1630052 545.9320952 271.87523097 567.05575774 278.5625 588.1875 C284.99181321 608.50260503 291.42756371 628.81564063 297.875 649.125 C298.08102215 649.77400394 298.2870443 650.42300789 298.49930954 651.09167862 C303.42554867 666.60999546 308.35717059 682.12658891 313.296875 697.640625 C313.74093942 699.03539939 314.1850007 700.43017478 314.62905884 701.82495117 C317.29255955 710.19081872 317.29255955 710.19081872 319.95697021 718.55639648 C324.5228427 732.88982804 329.07927064 747.22593894 333.5859375 761.578125 C341.60993262 787.12166401 349.78543682 812.60634352 358.17047501 838.03314972 C365.40394307 859.96925188 372.46426159 881.95346056 379.38256836 903.99145508 C384.31607833 919.70239524 389.3295409 935.38579966 394.39025879 951.05621338 C404.86613625 983.50765197 404.86613625 983.50765197 409.4375 998.625 C409.94035522 1000.27375122 409.94035522 1000.27375122 410.45336914 1001.95581055 C413.89180292 1013.50781379 416.56489944 1024.77003083 416.4375 1036.875 C416.42992676 1037.90657227 416.42235352 1038.93814453 416.41455078 1040.00097656 C415.94227167 1062.11191226 406.70646531 1079.01090243 391.0859375 1094.2890625 C379.24937263 1105.05305839 364.58364773 1112.18169858 348.50503558 1112.11778647 C347.6458884 1112.11837013 346.78674121 1112.11895378 345.90155927 1112.11955513 C343.00322687 1112.1202865 340.10495458 1112.11382117 337.20662975 1112.10743046 C335.10653687 1112.10646257 333.00644375 1112.10593539 330.90635064 1112.10581067 C325.09866469 1112.10417495 319.2910014 1112.09623534 313.48332267 1112.08732699 C307.17901362 1112.07875552 300.87470168 1112.07598963 294.57038814 1112.07250541 C283.50924292 1112.0655841 272.44810623 1112.05494829 261.38696671 1112.04183006 C249.5158088 1112.02777058 237.64465171 1112.01589618 225.773489 1112.00670624 C225.02433819 1112.00612499 224.27518737 1112.00554374 223.50333502 1112.00494488 C219.6835678 1112.00199133 215.86380056 1111.9990735 212.0440333 1111.99616829 C184.37960334 1111.97505436 156.71517965 1111.9490776 129.05075645 1111.92053413 C101.6492092 1111.89227612 74.24766124 1111.86609182 46.84610939 1111.84269524 C45.99551459 1111.84196802 45.14491978 1111.8412408 44.26854938 1111.84049154 C36.49981839 1111.83385075 28.73108737 1111.82723555 20.96235633 1111.82065109 C1.64908464 1111.80428162 -17.66418677 1111.78759095 -36.977458 1111.77068233 C-37.85699802 1111.76991256 -38.73653805 1111.76914279 -39.6427308 1111.76834969 C-82.44028979 1111.73086527 -125.23784512 1111.68968028 -168.03540039 1111.64819336 C-182.88942461 1111.63379628 -197.74344884 1111.61941556 -212.59747314 1111.60510254 C-213.51870557 1111.60421484 -214.43993799 1111.60332715 -215.38908655 1111.60241255 C-258.20489974 1111.56117781 -301.02071518 1111.52256976 -343.83653142 1111.48464044 C-346.61574135 1111.48217837 -349.39495129 1111.47971516 -352.17416123 1111.47725173 C-370.5919382 1111.4609284 -389.00971521 1111.44465037 -407.42749225 1111.42840267 C-444.0751375 1111.39607264 -480.72278252 1111.36347644 -517.37042737 1111.33069739 C-519.11573286 1111.32913633 -520.86103834 1111.32757545 -522.60634382 1111.32601476 C-601.18849265 1111.25574324 -679.77063848 1111.18237499 -758.3527832 1111.10766602 C-759.08868579 1111.1069664 -759.82458838 1111.10626679 -760.58279104 1111.10554598 C-797.38852754 1111.07055293 -834.19426387 1111.03538323 -871 1111 C-871 1110.67 -871 1110.34 -871 1110 C-869.93652682 1109.99959982 -868.87305365 1109.99919963 -867.77735401 1109.99878732 C-831.36483408 1109.98506254 -794.95231441 1109.97067236 -758.53979492 1109.95581055 C-757.80624857 1109.95551121 -757.07270221 1109.95521187 -756.31692718 1109.95490346 C-677.72147944 1109.92281254 -599.12603517 1109.88634473 -520.53059387 1109.84101868 C-518.78490767 1109.84001305 -517.03922147 1109.83900743 -515.29353528 1109.83800181 C-478.65165118 1109.81688055 -442.00976748 1109.79514337 -405.36788417 1109.77269462 C-386.96163213 1109.76141864 -368.55538001 1109.75026102 -350.14912783 1109.73921531 C-347.37260279 1109.73754841 -344.59607776 1109.73587814 -341.81955273 1109.73420772 C-299.06166944 1109.70851344 -256.30378663 1109.68535865 -213.54589844 1109.66955566 C-212.16675155 1109.66904587 -212.16675155 1109.66904587 -210.75974311 1109.66852577 C-195.93565609 1109.66306154 -181.11156899 1109.6578103 -166.28748188 1109.65258733 C-123.59293138 1109.63754152 -80.89838413 1109.62092239 -38.2038393 1109.59387684 C-37.3259776 1109.59332151 -36.44811589 1109.59276618 -35.54365232 1109.59219403 C-16.27309057 1109.57997533 2.99747054 1109.56694649 22.26803123 1109.55315043 C30.02169673 1109.54761375 37.77536232 1109.54219371 45.52902794 1109.53681374 C46.80194029 1109.53592629 46.80194029 1109.53592629 48.10056805 1109.53502092 C75.44898404 1109.51601226 102.79739323 1109.50650065 130.14581515 1109.50196405 C157.69193772 1109.49735123 185.23803861 1109.48343718 212.78414897 1109.45657366 C216.58984735 1109.45286461 220.39554582 1109.44926233 224.20124435 1109.44572449 C224.94727643 1109.4450271 225.69330852 1109.44432971 226.46194763 1109.44361119 C238.27988428 1109.43284062 250.09779929 1109.43214024 261.91573943 1109.43563199 C273.53366216 1109.43885801 285.15152877 1109.43119335 296.7694384 1109.41267589 C302.98556118 1109.40308033 309.20158801 1109.39827767 315.41771481 1109.40660437 C321.07101956 1109.41408494 326.72413518 1109.4078336 332.37741697 1109.39055933 C334.41153194 1109.38676258 336.44566402 1109.38799771 338.47977101 1109.39484399 C360.40272628 1109.46283069 377.29329199 1104.20139159 393.54296875 1088.55078125 C408.8040684 1072.26716237 413.60180266 1053.10995457 413.08886719 1031.35644531 C412.42909201 1013.86152759 405.82860749 997.35187533 400.30078125 980.93945312 C398.00967607 974.11577819 395.84901489 967.28262286 393.8828125 960.359375 C392.10452932 954.17772396 390.05653255 948.09390288 388 942 C385.74692112 935.32354007 383.54435969 928.65529984 381.625 921.875 C379.17660156 913.24020675 376.26315202 904.76219066 373.39065552 896.26187134 C370.74298917 888.41322067 368.22918672 880.56009939 366.0625 872.5625 C363.44106115 862.92798672 360.08273735 853.58251941 356.69714355 844.19775391 C353.59874175 835.60455031 350.70003335 827.02230101 348.23828125 818.22265625 C346.67930139 812.75483265 344.81972258 807.38529369 343 802 C339.97932136 793.04514492 337.19237762 784.05769321 334.57666016 774.97802734 C332.13064029 766.58782711 329.49891873 758.27204002 326.5 750.0625 C324.45761556 744.44120042 322.72805701 738.76652723 321.0859375 733.01977539 C319.23304966 726.61921308 317.13198839 720.31236747 315 714 C312.72570086 707.26143287 310.5055762 700.52931761 308.5625 693.6875 C306.09578112 685.01085947 303.18164877 676.490136 300.30151367 667.94360352 C297.98767564 661.04849184 295.80300647 654.14285607 293.8125 647.1484375 C292.20158347 641.54333067 290.36787331 636.02422041 288.5 630.5 C286.41157557 624.32350139 284.40965513 618.14607982 282.625 611.875 C280.47619562 604.33946683 278.0021327 596.9248622 275.5 589.5 C272.82390431 581.55863442 270.23462348 573.62401531 267.95092773 565.56152344 C266.03020537 558.88792304 263.78676312 552.32748984 261.5625 545.75 C258.51309177 536.72742744 255.70407721 527.68926067 253.17041016 518.50976562 C251.24745374 511.63769161 248.94185073 504.9424595 246.5324707 498.2277832 C244.46757325 492.44025373 242.66271831 486.62328861 240.98413086 480.71386719 C239.17213463 474.41317839 237.09723971 468.21079514 235 462 C232.52564037 454.65837447 230.14476828 447.3151699 228.00390625 439.86987305 C226.10781081 433.29980878 224.11052892 426.76154361 222.09152222 420.22836304 C221.52041136 418.37860972 220.95264817 416.52782382 220.38500977 414.67700195 C218.54153049 408.72494114 216.60432151 402.83451435 214.46875 396.98046875 C212.37165306 391.19197879 210.61042167 385.3644659 208.9609375 379.43457031 C207.40790042 373.88372539 205.70684193 368.38016623 204 362.875 C203.62335205 361.65868896 203.2467041 360.44237793 202.85864258 359.18920898 C199.14099557 347.25288735 195.17544825 335.39979781 191.16210938 323.56005859 C188.56339731 315.86857285 186.15177997 308.17018875 183.9675293 300.34790039 C182.3452564 294.73441864 180.44667655 289.21740287 178.5625 283.6875 C175.84028718 275.61794553 173.20942725 267.55208705 170.88305664 259.36010742 C169.10460437 253.17822851 167.05650069 247.09419491 165 241 C161.97972814 232.04499904 159.19238268 223.05771079 156.57666016 213.97802734 C154.13064029 205.58782711 151.49891873 197.27204002 148.5 189.0625 C146.71682315 184.14910248 145.13167325 179.20936543 143.6875 174.1875 C140.79158916 164.15045899 137.59983847 154.21651851 134.37988281 144.27929688 C133.03427865 140.11643539 131.7077607 135.94756805 130.38070679 131.77876282 C129.08760154 127.72427641 127.78529562 123.67277471 126.48162842 119.62167358 C125.83693877 117.61254517 125.19559559 115.60233925 124.55792236 113.5909729 C115.237026 84.21888274 103.15559842 56.25417875 79 36 C78.12601563 35.2265625 77.25203125 34.453125 76.3515625 33.65625 C54.87950132 15.00491535 28.10541942 5.07188108 0 2 C0 1.34 0 0.68 0 0 Z " fill="#F5DFE1" transform="translate(1264,444)"/>
<path d="M0 0 C0.99 0 1.98 0 3 0 C5.33992765 7.69399939 6.46166012 14.04011598 5 22 C4.67 22 4.34 22 4 22 C3.87882812 21.0821875 3.75765625 20.164375 3.6328125 19.21875 C2.74164198 12.69263976 1.77666013 6.34521474 0 0 Z " fill="#F9EEEF" transform="translate(1673,1451)"/>
<path d="M0 0 C0.66 0 1.32 0 2 0 C1.01 3.3 0.02 6.6 -1 10 C-1.66 9.67 -2.32 9.34 -3 9 C-2.5020163 5.26512223 -2.12508244 3.18762365 0 0 Z " fill="#FAF2F3" transform="translate(360,1341)"/>
<path d="M0 0 C0.66 0 1.32 0 2 0 C1.01 3.3 0.02 6.6 -1 10 C-1.66 9.67 -2.32 9.34 -3 9 C-2.5020163 5.26512223 -2.12508244 3.18762365 0 0 Z " fill="#FAF2F3" transform="translate(432,1114)"/>
<path d="M0 0 C0.66 0 1.32 0 2 0 C1.01 3.3 0.02 6.6 -1 10 C-1.66 9.67 -2.32 9.34 -3 9 C-2.5020163 5.26512223 -2.12508244 3.18762365 0 0 Z " fill="#FAF2F3" transform="translate(447,1067)"/>
<path d="M0 0 C0.66 0 1.32 0 2 0 C1.01 3.3 0.02 6.6 -1 10 C-1.66 9.67 -2.32 9.34 -3 9 C-2.5020163 5.26512223 -2.12508244 3.18762365 0 0 Z " fill="#FAF2F2" transform="translate(556,725)"/>
<path d="M0 0 C0.66 0 1.32 0 2 0 C1.01 3.3 0.02 6.6 -1 10 C-1.66 9.67 -2.32 9.34 -3 9 C-2.5020163 5.26512223 -2.12508244 3.18762365 0 0 Z " fill="#FBF2F3" transform="translate(402,1208)"/>
<path d="M0 0 C0.66 0 1.32 0 2 0 C1.01 3.3 0.02 6.6 -1 10 C-1.66 9.67 -2.32 9.34 -3 9 C-2.5020163 5.26512223 -2.12508244 3.18762365 0 0 Z " fill="#FBF3F4" transform="translate(497,910)"/>
<path d="M0 0 C1 3 1 3 0.25 5.625 C-1 8 -1 8 -4 9 C-3.71848913 7.68528432 -3.42446661 6.37324233 -3.125 5.0625 C-2.96257812 4.33160156 -2.80015625 3.60070313 -2.6328125 2.84765625 C-2 1 -2 1 0 0 Z " fill="#F8EBEC" transform="translate(1676,1503)"/>
<path d="M0 0 C1.39195915 4.17587745 -0.17676781 6.13474776 -2 10 C-2.66 10 -3.32 10 -4 10 C-3.52449439 8.51965236 -3.04448784 7.04074979 -2.5625 5.5625 C-2.29566406 4.73878906 -2.02882813 3.91507813 -1.75390625 3.06640625 C-1 1 -1 1 0 0 Z " fill="#FDFAFA" transform="translate(621,523)"/>
<path d="M0 0 C0.33 0 0.66 0 1 0 C0.67 3.3 0.34 6.6 0 10 C-0.66 9.34 -1.32 8.68 -2 8 C-1.42307692 1.42307692 -1.42307692 1.42307692 0 0 Z " fill="#FAF1F2" transform="translate(323,1457)"/>
</svg>
